name rise35.5848peak51.9257fall54.8793.mot
datacolumns 19
datarows 15
range 0.75665700000000 0.77999000000000
endheader
time	ground_force1_vx	ground_force1_vy	ground_force1_vz	ground_force1_px	ground_force1_py	ground_force1_pz	ground_force2_vx	ground_force2_vy	ground_force2_vz	ground_force2_px	ground_force2_py	ground_force2_pz	ground_torque1_x	ground_torque1_y	ground_torque1_z	ground_torque2_x	ground_torque2_y	ground_torque2_z	
0.75665700000000	56.45097900000000	778.22594900000001	55.82581500000000	0.30961100000000	0.00000000000000	0.12320100000000	0.00000000000000	0.00000000000000	0.00000000000000	0.00000000000000	0.00000000000000	0.00000000000000	0.00000000000000	20.64243800000000	0.00000000000000	0.00000000000000	0.00000000000000	0.00000000000000	
0.75832200000000	55.76056600000000	779.32417399999997	55.74151800000000	0.30852800000000	0.00000000000000	0.12318200000000	0.00000000000000	0.00000000000000	0.00000000000000	0.00000000000000	0.00000000000000	0.00000000000000	0.00000000000000	20.63036500000000	0.00000000000000	0.00000000000000	0.00000000000000	0.00000000000000	
0.75999500000000	55.08022600000000	780.30744000000004	55.64766000000000	0.30747800000000	0.00000000000000	0.12316100000000	0.00000000000000	0.00000000000000	0.00000000000000	0.00000000000000	0.00000000000000	0.00000000000000	0.00000000000000	20.61312500000000	0.00000000000000	0.00000000000000	0.00000000000000	0.00000000000000	
0.76166300000000	54.41047800000000	781.17668200000003	55.54465600000000	0.30646100000000	0.00000000000000	0.12313800000000	0.00000000000000	0.00000000000000	0.00000000000000	0.00000000000000	0.00000000000000	0.00000000000000	0.00000000000000	20.59090200000000	0.00000000000000	0.00000000000000	0.00000000000000	0.00000000000000	
0.76332700000000	53.75174000000000	781.93292699999995	55.43289100000000	0.30547700000000	0.00000000000000	0.12311300000000	0.00000000000000	0.00000000000000	0.00000000000000	0.00000000000000	0.00000000000000	0.00000000000000	0.00000000000000	20.56386600000000	0.00000000000000	0.00000000000000	0.00000000000000	0.00000000000000	
0.76499300000000	53.10433100000000	782.57730500000002	55.31272800000000	0.30452300000000	0.00000000000000	0.12308700000000	0.00000000000000	0.00000000000000	0.00000000000000	0.00000000000000	0.00000000000000	0.00000000000000	0.00000000000000	20.53217900000000	0.00000000000000	0.00000000000000	0.00000000000000	0.00000000000000	
0.76665500000000	52.46847800000000	783.11104899999998	55.18450000000000	0.30360000000000	0.00000000000000	0.12305900000000	0.00000000000000	0.00000000000000	0.00000000000000	0.00000000000000	0.00000000000000	0.00000000000000	0.00000000000000	20.49599200000000	0.00000000000000	0.00000000000000	0.00000000000000	0.00000000000000	
0.76832300000000	51.84431700000000	783.53550199999995	55.04852100000000	0.30270600000000	0.00000000000000	0.12302900000000	0.00000000000000	0.00000000000000	0.00000000000000	0.00000000000000	0.00000000000000	0.00000000000000	0.00000000000000	20.45544600000000	0.00000000000000	0.00000000000000	0.00000000000000	0.00000000000000	
0.76999200000000	51.23189800000000	783.85212799999999	54.90508000000000	0.30183900000000	0.00000000000000	0.12299700000000	0.00000000000000	0.00000000000000	0.00000000000000	0.00000000000000	0.00000000000000	0.00000000000000	0.00000000000000	20.41067700000000	0.00000000000000	0.00000000000000	0.00000000000000	0.00000000000000	
0.77166000000000	50.63118900000000	784.06250599999998	54.75444900000000	0.30099800000000	0.00000000000000	0.12296400000000	0.00000000000000	0.00000000000000	0.00000000000000	0.00000000000000	0.00000000000000	0.00000000000000	0.00000000000000	20.36181000000000	0.00000000000000	0.00000000000000	0.00000000000000	0.00000000000000	
0.77332400000000	50.04208400000000	784.16834400000005	54.59688000000000	0.30018100000000	0.00000000000000	0.12292900000000	0.00000000000000	0.00000000000000	0.00000000000000	0.00000000000000	0.00000000000000	0.00000000000000	0.00000000000000	20.30896800000000	0.00000000000000	0.00000000000000	0.00000000000000	0.00000000000000	
0.77500600000000	49.46440700000000	784.17147399999999	54.43260900000000	0.29938700000000	0.00000000000000	0.12289200000000	0.00000000000000	0.00000000000000	0.00000000000000	0.00000000000000	0.00000000000000	0.00000000000000	0.00000000000000	20.25226500000000	0.00000000000000	0.00000000000000	0.00000000000000	0.00000000000000	
0.77666000000000	48.89791400000000	784.07385799999997	54.26186100000000	0.29861500000000	0.00000000000000	0.12285400000000	0.00000000000000	0.00000000000000	0.00000000000000	0.00000000000000	0.00000000000000	0.00000000000000	0.00000000000000	20.19181500000000	0.00000000000000	0.00000000000000	0.00000000000000	0.00000000000000	
0.77832500000000	48.34230500000000	783.87759000000005	54.08484700000000	0.29786100000000	0.00000000000000	0.12281400000000	0.00000000000000	0.00000000000000	0.00000000000000	0.00000000000000	0.00000000000000	0.00000000000000	0.00000000000000	20.12772600000000	0.00000000000000	0.00000000000000	0.00000000000000	0.00000000000000	
0.77999000000000	47.79722200000000	783.58489299999997	53.90176800000000	0.29712400000000	0.00000000000000	0.12277300000000	0.00000000000000	0.00000000000000	0.00000000000000	0.00000000000000	0.00000000000000	0.00000000000000	0.00000000000000	20.06010400000000	0.00000000000000	0.00000000000000	0.00000000000000	0.00000000000000	
